# xmcd
#
# Track frame offsets: 
#        150
#        17350
#        63691
#        88374
#        129177
#        180024
#        205535
#        233644
#        259054
#        280438
#        317500
#        334214
#
# Disc length: 4768 seconds
#
# Revision: 1
# Processed by: cddbd v1.5.2PL0 Copyright (c) Steve Scherf et al.
# Submitted via: ExactAudioCopy v0.99pb4
#
DISCID=9c129e0c
DTITLE=Bruce Springsteen and the Seeger Sessions Band - CC Stockholm Ton
DTITLE=ight 2006, 10-30-06[CD2]
DYEAR=2006
DGENRE=Folk/Rock
TTITLE0=How Can a Poor Man Stand Such Times And Live?
TTITLE1=Jacob's Ladder
TTITLE2=Long Time Comin'
TTITLE3=Open All Night
TTITLE4=Pay Me My Money Down
TTITLE5=The River
TTITLE6=You Can Look (But You Better Not Touch)
TTITLE7=When The Saints Go Marching In
TTITLE8=This Little Light of Mine
TTITLE9=American Land
TTITLE10=Fire
TTITLE11=Land of Hope and Dreams
EXTD=Crystal Cat Records
EXTT0=
EXTT1=
EXTT2=
EXTT3=
EXTT4=
EXTT5=
EXTT6=
EXTT7=
EXTT8=
EXTT9=
EXTT10=
EXTT11=
PLAYORDER=
